<svg xmlns="http://www.w3.org/2000/svg" width="20" height="20"><path d="M7.5 1.3c-1.7.5-3.3 1.5-4.4 2.8.7.3 1.4.6 2.1.8.2-.6.5-1.2.8-1.7.4-.7.9-1.4 1.5-1.9m0 17.4c-.6-.5-1.1-1.2-1.5-1.9-.3-.5-.5-1.1-.8-1.7-.7.2-1.4.5-2.1.8 1.1 1.3 2.7 2.3 4.4 2.8zm9.5-2.9c-.7-.3-1.4-.6-2.2-.8-.2.6-.5 1.2-.8 1.8-.4.7-.9 1.4-1.5 1.9 1.8-.5 3.3-1.5 4.5-2.9zM12.5 1.3c.6.5 1.1 1.2 1.5 1.9.3.6.6 1.2.8 1.8.7-.2 1.5-.5 2.2-.8-1.2-1.4-2.7-2.4-4.5-2.9zm-3 4.4V1.2c-1.2.3-2.1 1.4-2.7 2.5-.3.5-.5 1-.7 1.5 1.2.3 2.3.4 3.4.5zm-3.3 9.1c.2.5.4 1 .7 1.5.6 1 1.5 2.2 2.7 2.4v-4.4c-1.2.1-2.3.2-3.4.5zm4.3-.5v4.4c1.2-.2 2.1-1.4 2.7-2.4.3-.5.5-1 .7-1.6-1.2-.2-2.3-.3-3.4-.4zm3.4-9.1c-.2-.5-.4-1.1-.7-1.6-.6-1-1.5-2.2-2.7-2.4v4.4c1.1 0 2.2-.1 3.4-.4zM2.5 15.1c.8-.4 1.6-.7 2.5-1-.3-1.2-.5-2.5-.5-3.8H.9c.1 1.8.6 3.4 1.6 4.8zm7-4.7H5.4c0 1.2.2 2.4.5 3.5 1.2-.3 2.4-.5 3.6-.5v-3zm4.6 3.5c.3-1.1.4-2.3.5-3.5h-4.1v3c1.2 0 2.4.2 3.6.5zm5-3.5h-3.5c0 1.3-.2 2.5-.5 3.8.9.3 1.7.6 2.5.9.9-1.4 1.4-3.1 1.5-4.7zM15 5.9c.3 1.2.5 2.4.5 3.5H19c0-1.6-.6-3.1-1.5-4.4-.8.3-1.6.6-2.5.9zm-4.5 3.5h4.1c0-1.1-.2-2.2-.5-3.3-1.2.3-2.4.5-3.7.5v2.8zM5.9 6.1c-.3 1.1-.5 2.2-.5 3.3h4.1V6.6c-1.2 0-2.4-.2-3.6-.5zM2.5 4.9C1.6 6.2 1 7.8.9 9.4h3.5c.1-1.2.3-2.4.6-3.6-.9-.2-1.7-.6-2.5-.9zM10 0c5.5 0 10 4.5 10 10s-4.5 10-10 10S0 15.5 0 10 4.5 0 10 0z" fill-rule="evenodd" clip-rule="evenodd"/></svg>